<?xml version="1.0" encoding="utf-8"?>
<!-- Generator: Adobe Illustrator 27.5.0, SVG Export Plug-In . SVG Version: 6.00 Build 0)  -->
<svg version="1.1" id="Layer_1" xmlns="http://www.w3.org/2000/svg" xmlns:xlink="http://www.w3.org/1999/xlink" x="0px" y="0px"
	 viewBox="0 0 1280 1024" style="enable-background:new 0 0 1280 1024;" xml:space="preserve">
<style type="text/css">
	.st0{fill:#AFD198;}
	.st1{fill:#E8EFCF;}
</style>
<g>
	<rect x="0.5" y="0.5" class="st0" width="1279" height="1023"/>
	<path d="M1279,1v1022H1V1H1279 M1280,0H0v1024h1280V0L1280,0z"/>
</g>
<g>
	<path class="st1" d="M1237.1,528.7c-13.8,90-95.8,165.3-145.3,192.4c-154.2,84.5-294.9-4.9-313.4-18.4
		c-11.1-8.1-21.7-17.7-21.7-17.7c-24-22.4-24.1-34.9-114.2-87.2c-42.9-24.9-68.4-29.4-85.2-43c-19.9-16-44.2-36.2-57.4-71.8
		c-6.8-18.3-8.9-40.1-8.9-53.5c0-100.9,160.5-231.3,348.1-121c57.2,33.6,37.6,44.8,114.7,69.1c135.4,42.8,227-8.6,268,50.6
		C1246.9,464.6,1239.5,513,1237.1,528.7z"/>
</g>
</svg>
